<svg xmlns="http://www.w3.org/2000/svg" viewBox="0 0 905.11 48.1"><g data-name="Layer 2"><path d="M292.13.48c-17.2 0-23.6 14.37-23.6 23.43 0 11.34 7.27 23.54 23.24 23.54 13.85 0 23.9-10.3 23.9-24.49 0-13.45-9.46-22.48-23.54-22.48zm1.2 44.13c-10.64 0-18.07-9.19-18.07-22.36 0-11.82 6.31-19.17 16.47-19.17 8.26 0 17.15 6.74 17.15 21.54 0 19.03-12.95 19.99-15.55 19.99zM389.78 42c-.26-2.49-.29-6.2-.29-8.72V12.61c0-1.24.07-5.32.11-6.61.08-2.1.93-3.29 4-3.29h.3V1.3h-15.07v1.41h.29c3.39 0 3.89 1.39 4 3.29.05.86.11 5.22.11 6.61v20.65c0 2.31 0 6.25-.29 8.71-.25 1.85-.63 3.25-3.72 3.25h-.93v1.41h16.14v-1.41h-.49c-2.74 0-3.88-.51-4.16-3.22zm-294.7 0c-.26-2.49-.29-6.2-.29-8.72V12.61c0-1.24.06-5.32.11-6.61.08-2.1.92-3.29 4-3.29h.3V1.3H84.12v1.41h.29c3.39 0 3.89 1.39 4 3.29.06.86.12 5.22.12 6.61v20.65c0 2.31 0 6.25-.29 8.71-.26 1.85-.63 3.25-3.72 3.25h-.93v1.41h16.14v-1.41h-.49c-2.74 0-3.88-.51-4.16-3.22zM356 2.71h.28c3.39 0 3.89 1.39 4 3.29.05.86.12 5.24.12 6.63v16c0 10.66-5.25 15.79-13.18 15.79-8.7 0-13.16-6.17-13.16-15.79v-16c0-1.24.07-5.32.12-6.61.08-2.1.92-3.29 4-3.29h.3V1.3h-15.1v1.41h.28c3.4 0 3.9 1.39 4 3.29.06.86.12 5.22.12 6.61v15.15c0 9.81 4.76 19.69 18.57 19.69 11.81 0 18.35-6.75 18.35-21.25V12.63c0-1.24.07-5.34.12-6.63.08-2.1.92-3.3 4-3.3h.31V1.3H356zm66.76 17.73l-2.82-1.07c-5.71-2.13-8.95-4.21-8.95-8.92 0-4.56 3.8-7.3 9.13-7.3 10.16 0 11.57 6.86 11.57 6.86h1.72s-1.18-7.12-1.41-8.22A60.1 60.1 0 00420.61.47c-10.31 0-15.26 5.73-15.26 11.73s3.22 10 9.91 12.62l3.77 1.4c7.06 2.69 9.46 5.62 9.46 9.45 0 4.69-3.58 9-10.43 9-7.18 0-10.74-4-12.15-9h-1.77L405.51 46a44.19 44.19 0 0010.89 1.51c12.23 0 18.19-6.66 18.19-13.26 0-6.49-3.59-10.67-11.83-13.81zm-404.14 0l-2.82-1.07c-5.71-2.13-9-4.21-9-8.92 0-4.56 3.8-7.3 9.13-7.3C26.14 3.15 27.55 10 27.55 10h1.72s-1.18-7.12-1.38-8.22A60.22 60.22 0 0016.47.47C6.16.47 1.2 6.2 1.2 12.2s3.22 10 9.91 12.62l3.77 1.4c7.07 2.69 9.47 5.62 9.47 9.45 0 4.69-3.58 9-10.43 9-7.18 0-10.74-4-12.15-9L0 35.69 1.36 46a44.37 44.37 0 0010.9 1.51c12.23 0 18.19-6.66 18.19-13.26 0-6.49-3.6-10.67-11.83-13.81zM73.6 40L56.56 0h-2.07s-15.6 36.17-17.12 39.72c-1.35 3.17-2.54 5.5-6.34 5.5h-.7v1.41h14.25v-1.41h-1.07a2.1 2.1 0 01-2.32-2.1 10 10 0 01.94-3.4l4-10.16H62l5.29 12.53a5 5 0 01.56 2c0 .56-.36 1.14-1.32 1.14h-1v1.41h15.28v-1.42h-.38c-3.79 0-5.33-1.78-6.83-5.22zM47.42 26.45l6.66-16.39s6.63 16.38 6.63 16.39zm93.52-23.74h1.48c3.68 0 4.09 2.21 4.19 5.52.06 1.75.55 26.68.55 26.68L120.77 1.3h-10.18v1.41h.75c2.64 0 3.75.54 3.75 5.52V39.7c0 3.84-1 5.52-4 5.52h-1v1.41H125v-1.41h-1.48c-3.68 0-4.09-2.21-4.19-5.52-.09-1.7-.69-30.7-.69-30.7l30.61 39.1h1.55V8.23c0-3.84 1-5.52 4-5.52h1V1.3h-14.9zm23.17-1.41l-1.73 8.11h1.53l.38-1.19c1-3.14 2.12-3.6 6.62-3.64 3.14 0 9.28-.1 9.28-.1v28.77c0 2.32 0 6.26-.29 8.72-.25 1.84-.63 3.25-3.72 3.25h-.93v1.41h16.14v-1.41h-.49c-2.73 0-3.88-.51-4.16-3.24-.26-2.49-.29-6.2-.29-8.73V4.48l9.3.1c4.5 0 5.59.5 6.61 3.64.12.35.39 1.19.39 1.19h1.53l-1.73-8.11zm99.06 37.57c-1 2.58-1.56 4.23-8.07 4.37l-11.33.24c-2.18.05-3.82-.7-3.82-2.92V12.61c0-1.24.07-5.32.12-6.61.08-2.1.92-3.29 4-3.29h.3V1.3h-15.09v1.41h.29c3.39 0 3.89 1.39 4 3.29.06.86.12 5.22.12 6.61v20.64c0 2.32 0 6.26-.29 8.72-.26 1.84-.63 3.25-3.73 3.25h-.92v1.41H263l2.4-8.93h-1.8zM697.54 2.73h.29c3.39 0 3.89 1.39 4 3.29 0 .86.12 5.24.12 6.63v16c0 10.67-4.82 15.79-12.75 15.79-8.71 0-12.75-6.17-12.75-15.79v-16c0-1.24.07-5.32.12-6.62.07-2.1.92-3.29 4-3.29h.31V1.32h-15.07v1.4h.28c3.39 0 3.89 1.4 4 3.29 0 .86.12 5.23.12 6.62v15.15c0 9.81 4.33 19.69 18.14 19.69 11.81 0 17.93-6.76 17.93-21.26V12.65c0-1.23.07-5.33.12-6.63.07-2.1.92-3.29 4-3.29h.31V1.32h-13.17zm39.68 17.73l-2.81-1.06c-5.72-2.13-9-4.22-9-8.93s3.8-7.3 9.13-7.3c10.16 0 11.57 6.86 11.57 6.86h1.73s-1.19-7.12-1.39-8.22A60.43 60.43 0 00735.07.5c-10.31 0-15.26 5.72-15.26 11.72s3.22 10 9.91 12.63l3.77 1.4c7.06 2.68 9.46 5.61 9.46 9.45 0 4.68-3.58 9-10.43 9-7.18 0-10.74-4-12.15-9h-1.77L720 46a44.19 44.19 0 0010.89 1.51c12.23 0 18.19-6.66 18.19-13.26-.03-6.46-3.63-10.64-11.86-13.79zM496.21 40c-1.67-3.89-17-39.94-17-39.94h-2.08S461.49 36.2 460 39.74c-1.36 3.18-2.55 5.51-6.34 5.51h-.7v1.4h14.24v-1.4h-1.06a2.1 2.1 0 01-2.32-2.11 10 10 0 01.93-3.39l4-10.16h15.8l5.3 12.53a5.09 5.09 0 01.55 2c0 .56-.36 1.14-1.32 1.14h-1v1.4h15.51v-1.4H503c-3.76-.01-5.3-1.79-6.79-5.26zM470 26.47l6.65-16.38 6.64 16.38zm80.17-25.14l-1.73 8.1H550l.38-1.18c1-3.15 2.12-3.6 6.61-3.64 3.15 0 8.18-.11 8.18-.11v28.78c0 2.32 0 6.25-.29 8.72-.26 1.84-.63 3.25-3.73 3.25h-.92v1.41h16.14v-1.41h-.49c-2.74 0-3.88-.52-4.16-3.25-.26-2.49-.3-6.19-.3-8.72V4.5s4.88.08 8.18.11c4.5 0 5.59.5 6.62 3.64l.38 1.18h1.53l-1.73-8.1zm238.58 38.34c-.9 2.21-2 3.49-8.15 3.65l-7.72.21c-2.43.06-4.06-.62-4.06-3V23.9s5.18.1 7.18.1c3 0 4 1.21 4 3.93v.69h1.51V17.13H780V18c0 1.9-1.1 3-4 3h-7.17V4.44h12.82c3.44 0 4.48 1 5 2.19.37.87 1.19 2.75 1.19 2.75h1.56L788 1.33h-29.84v1.4h.28c3.39 0 3.89 1.4 4 3.29 0 .86.12 5.23.12 6.62v20.64a86.16 86.16 0 01-.3 8.72c-.25 1.84-.63 3.25-3.72 3.25h-.93v1.42h31.27l2.4-8.94h-1.8s-.35 1.02-.73 1.94zM656.53 39L651.09.51h-1.47L634.44 37 617.3.51h-1.57s-4.9 38.41-5.25 41c-.19 1.43-.88 3.71-3.78 3.71h-1.19v1.41h14.23v-1.38h-1.27c-2.67 0-3.55-1.23-3.33-3.44s2.68-25.72 2.68-25.72l15.31 31.81h.7l13.51-31.81s2.75 21.82 3.14 25c.31 2.52-1.1 4.21-3.28 4.21h-1.35v1.41h17.93v-1.46H663c-4.33 0-5.88-2.13-6.47-6.25zM829.54 2.73h.28c3.39 0 3.89 1.39 4 3.29 0 .86.12 5.24.12 6.63v16c0 10.67-4.82 15.79-12.75 15.79-8.71 0-12.74-6.17-12.74-15.79v-16c0-1.24.07-5.32.12-6.62.08-2.1.92-3.29 4-3.29h.31V1.32H797.8v1.4h.28c3.4 0 3.89 1.4 4 3.29 0 .86.12 5.23.12 6.62v15.15c0 9.81 4.33 19.69 18.14 19.69 11.82 0 17.93-6.76 17.93-21.26V12.65c0-1.23.07-5.33.12-6.63.07-2.1.92-3.29 4-3.29h.31V1.32h-13.16zm74.76 42.52c-4.3 0-5.85-2.13-6.44-6.24-.54-3.76-5.43-38.5-5.43-38.5H891L875.78 37 858.63.51h-1.57s-4.9 38.41-5.25 41c-.19 1.43-.87 3.71-3.78 3.71h-1.19v1.41h14.23v-1.38h-1.27c-2.67 0-3.55-1.23-3.33-3.44s2.68-25.72 2.68-25.72l15.32 31.81h.69l13.51-31.81s2.76 21.82 3.14 25c.31 2.52-1.09 4.21-3.28 4.21h-1.35v1.41h17.93v-1.46zM538.62 34.84c-5.26-7.81-8.32-8.72-8.83-8.92 2.87-.3 11.12-3 11.12-11.82 0-6.81-4.41-12.78-16.53-12.78h-17.53v1.41h.29c3.39 0 3.89 1.39 4 3.29.05.86.11 5.23.11 6.62v20.64c0 2.32 0 6.25-.29 8.72-.26 1.84-.63 3.25-3.72 3.25h-.93v1.41h16.14v-1.41H522c-2.74 0-3.88-.52-4.16-3.25-.26-2.49-.29-6.19-.29-8.72v-6.47h2.58c4.78 0 6.83 1.82 11.87 9.25 7 10.32 12.43 10.59 20.55 10.59v-1.4c-4.26-.45-9.1-3.25-13.93-10.41zM523 23.8h-3.62a1.67 1.67 0 01-1.88-1.75V4.45h5.5c7.63 0 11.31 3.77 11.31 9.65s-3.62 9.7-11.31 9.7z" fill="#fff" data-name="Layer 1"/></g></svg>